<?xml version="1.0" encoding="UTF-8"?>
<svg width="78" height="66" viewBox="0 0 78 66" fill="none" xmlns="http://www.w3.org/2000/svg">
    <path fill-rule="evenodd" clip-rule="evenodd" d="M17.5844 57.0128C17.5844 54.9356 19.2752 53.2448 21.3524 53.2448C23.4297 53.2448 25.1205 54.9356 25.1205 57.0128C25.1205 59.0901 23.4297 60.7809 21.3524 60.7809C19.2752 60.7809 17.5844 59.0901 17.5844 57.0128ZM20.0965 57.0126C20.0965 57.7044 20.6607 58.2686 21.3525 58.2686C22.0443 58.2686 22.6085 57.7044 22.6085 57.0126C22.6085 56.3208 22.0443 55.7566 21.3525 55.7566C20.6607 55.7566 20.0965 56.3208 20.0965 57.0126Z" fill="#0E181E"/>
    <path fill-rule="evenodd" clip-rule="evenodd" d="M57.7772 57.0128C57.7772 54.9356 59.4681 53.2448 61.5453 53.2448C63.6225 53.2448 65.3134 54.9356 65.3134 57.0128C65.3134 59.0901 63.6225 60.7809 61.5453 60.7809C59.4681 60.7809 57.7772 59.0901 57.7772 57.0128ZM60.2894 57.0126C60.2894 57.7044 60.8536 58.2686 61.5454 58.2686C62.2372 58.2686 62.8014 57.7044 62.8014 57.0126C62.8014 56.3208 62.2372 55.7566 61.5454 55.7566C60.8536 55.7566 60.2894 56.3208 60.2894 57.0126Z" fill="#0E181E"/>
    <path fill-rule="evenodd" clip-rule="evenodd" d="M47.4801 35.6604H50.2411V43.1965H77.8737V57.0128C77.8737 59.0901 76.1829 60.7809 74.1057 60.7809H69.4771C68.0629 63.7462 65.0436 65.805 61.5454 65.805C58.0471 65.805 55.0279 63.7462 53.6136 60.7809H29.2842C27.87 63.7462 24.8507 65.805 21.3525 65.805C17.8542 65.805 14.835 63.7462 13.4207 60.7809H3.76808C1.69085 60.7809 0 59.0901 0 57.0128V39.6057C0 37.5002 1.04628 35.5475 2.79724 34.3792L3.89381 33.6481L5.49635 25.6361C6.08143 22.7106 8.67138 20.588 11.6544 20.588H23.8645C27.3272 20.588 30.1447 23.4055 30.1447 26.8682V43.1965H32.6567V35.6604H35.4178L37.9298 24.3561H43.4409L65.8961 1.90093C66.8044 0.991413 68.0126 0.491577 69.2962 0.491577C71.9493 0.491577 74.1057 2.64792 74.1057 5.30103V19.5105C76.2663 20.0716 77.8737 22.0225 77.8737 24.3561C77.8737 26.6897 76.2663 28.6406 74.1057 29.2017V31.3722L75.2084 32.4749C76.1179 33.3832 76.6177 34.5914 76.6177 35.875C76.6177 38.5281 74.4614 40.6845 71.8095 40.6845H71.3789C68.7258 40.6845 66.5695 38.5281 66.5695 35.875V34.4043H69.0815V35.875C69.0815 37.1427 70.1113 38.1724 71.3777 38.1724H71.8082C73.0759 38.1724 74.1057 37.1427 74.1057 35.875C74.1057 35.2623 73.8671 34.6858 73.4323 34.251L71.5936 32.4123V29.2017C69.433 28.6406 67.8255 26.6897 67.8255 24.3561C67.8255 22.0225 69.433 20.0716 71.5936 19.5105V9.80385L47.1636 34.2332L47.4801 35.6604ZM72.8496 26.8682C74.235 26.8682 75.3617 25.7416 75.3617 24.3562C75.3617 22.9707 74.235 21.8441 72.8496 21.8441C71.4642 21.8441 70.3376 22.9707 70.3376 24.3562C70.3376 25.7416 71.4642 26.8682 72.8496 26.8682ZM67.6722 3.67705C68.107 3.24222 68.6835 3.00365 69.2962 3.00365C70.5639 3.00365 71.5936 4.03337 71.5936 5.30105V6.25166L46.5184 31.3268L45.3378 26.0114L67.6722 3.67705ZM42.9539 26.8681H39.9439L37.9912 35.6603H44.9079L42.9539 26.8681ZM35.1688 38.1725H47.7291V43.1966H35.1688V38.1725ZM10.0482 53.2448H13.4207C14.835 50.2795 17.8542 48.2207 21.3525 48.2207C23.8118 48.2207 26.035 49.2382 27.6326 50.8708V43.1966H22.6085V40.6845H27.6326V35.6604H22.9047L20.3926 36.9165H10.0482V53.2448ZM27.6326 33.1483H22.3123L19.8002 34.4043H10.4579L12.2524 28.1242H27.6326V33.1483ZM6.15321 35.1617L4.19005 36.4705C3.14009 37.1703 2.51207 38.3417 2.51207 39.6057V53.2447H7.53987L7.58402 35.315L9.83604 27.4336C10.1427 26.3622 11.1362 25.6121 12.2512 25.6121H27.4014C26.8813 24.1537 25.4996 23.1001 23.8645 23.1001H11.6545C9.86487 23.1001 8.31139 24.3739 7.95936 26.131L6.15321 35.1617ZM3.7681 58.2689C3.07631 58.2689 2.51207 57.7047 2.51207 57.0129V55.7568H12.6609C12.602 56.169 12.5603 56.586 12.5603 57.0129C12.5603 57.4397 12.602 57.8568 12.6609 58.2689H3.7681ZM15.0724 57.0128C15.0724 60.4755 17.8898 63.293 21.3525 63.293C24.8152 63.293 27.6326 60.4755 27.6326 57.0128C27.6326 53.5502 24.8152 50.7327 21.3525 50.7327C17.8898 50.7327 15.0724 53.5502 15.0724 57.0128ZM30.0441 58.2689C30.103 57.8568 30.1447 57.4397 30.1447 57.0129C30.1447 56.586 30.103 56.169 30.0441 55.7568H52.8537C52.7949 56.169 52.7532 56.586 52.7532 57.0129C52.7532 57.4397 52.7949 57.8568 52.8537 58.2689H30.0441ZM55.2653 57.0128C55.2653 60.4755 58.0827 63.293 61.5454 63.293C65.0081 63.293 67.8255 60.4755 67.8255 57.0128C67.8255 53.5502 65.0081 50.7327 61.5454 50.7327C58.0827 50.7327 55.2653 53.5502 55.2653 57.0128ZM74.1057 58.2689H70.237C70.2959 57.8568 70.3376 57.4397 70.3376 57.0129C70.3376 56.586 70.2959 56.169 70.237 55.7568H75.3617V57.0129C75.3617 57.7047 74.7974 58.2689 74.1057 58.2689ZM69.4771 53.2447H75.3617V45.7085H30.1447V53.2447H53.6136C55.0279 50.2794 58.0471 48.2206 61.5454 48.2206C65.0436 48.2206 68.0628 50.2794 69.4771 53.2447Z" fill="#0E181E"/>
    <path d="M32.6567 48.2206H35.1688V50.7326H32.6567V48.2206Z" fill="#0E181E"/>
    <path d="M37.6808 48.2206H40.1928V50.7326H37.6808V48.2206Z" fill="#0E181E"/>
    <path d="M42.705 48.2206H45.217V50.7326H42.705V48.2206Z" fill="#0E181E"/>
</svg>
