<?xml version="1.0" encoding="UTF-8"?>
<svg width="71" height="79" viewBox="0 0 71 79" fill="none" xmlns="http://www.w3.org/2000/svg">
    <path fill-rule="evenodd" clip-rule="evenodd" d="M70.58 9.05391V11.7181C70.58 17.5597 68.6493 23.351 65.1425 28.0237C63.7884 29.8299 63.0426 32.0696 63.0426 34.3266C63.0426 37.1336 64.1355 39.7714 66.1201 41.756L69.5276 45.1623L69.2436 45.9197C64.2723 59.1767 54.5607 69.9651 41.8962 76.298L40.7315 76.8794C39.0891 77.7006 37.2486 78.1355 35.4112 78.1355C33.5738 78.1355 31.7351 77.7006 30.0909 76.8794L28.925 76.298C16.2617 69.9651 6.54894 59.1767 1.57757 45.9197L1.29362 45.1623L4.70109 41.756C6.68571 39.7702 7.7786 37.1324 7.7786 34.3266C7.7786 32.0696 7.03222 29.8311 5.67745 28.0225C2.17308 23.351 0.242432 17.5597 0.242432 11.7181V9.05391H4.30674L7.2021 10.5007C8.5949 11.198 10.1539 11.566 11.7123 11.566C15.6938 11.566 19.3116 9.2146 20.9295 5.57592L23.2907 0.261719H47.5318L49.8942 5.57592C51.5108 9.2146 55.1286 11.566 59.1102 11.566C60.6685 11.566 62.2288 11.198 63.6215 10.5007L66.5157 9.05391H70.58ZM64.3453 43.5321C61.8859 41.0728 60.5318 37.8046 60.5318 34.3266C60.5318 31.5294 61.456 28.756 63.134 26.5163C66.3158 22.2747 68.0679 17.0194 68.0679 11.7181V11.566H67.1081L64.7445 12.7478C63.0052 13.6181 61.0555 14.078 59.1102 14.078C54.1376 14.078 49.6182 11.1416 47.5986 6.59707L45.8992 2.77379H24.9233L23.2251 6.59707C21.2043 11.1416 16.6849 14.078 11.7123 14.078C9.76692 14.078 7.81725 13.6181 6.07795 12.7478L3.71431 11.566H2.75451V11.7181C2.75451 17.0194 4.50669 22.2747 7.68662 26.5163C9.36644 28.7548 10.2907 31.5294 10.2907 34.3266C10.2907 37.8046 8.93652 41.0728 6.47721 43.5321L4.21905 45.7903C9.04875 58.1083 18.1948 68.1234 30.0492 74.0509L31.2138 74.6323C33.8075 75.9288 37.0162 75.9288 39.6086 74.6323L40.7733 74.0509C52.6276 68.1222 61.7737 58.1071 66.6034 45.7903L64.3453 43.5321Z" fill="#0E181E"/>
    <path fill-rule="evenodd" clip-rule="evenodd" d="M36.6672 50.5028V59.295H34.1552V50.5028H30.3871V44.2227H24.1069V34.1745H30.3871V27.8943H34.1552V20.3582H36.6672V27.8943H40.4353V34.1745H46.7154V44.2227H40.4353V50.5028H36.6672ZM26.619 36.6868V41.7109H32.8992V47.9911H37.9233V41.7109H44.2034V36.6868H37.9233V30.4067H32.8992V36.6868H26.619Z" fill="#0E181E"/>
    <path d="M10.179 46.9335C14.1654 42.8563 15.9617 37.2569 15.105 31.5367C14.6891 28.7548 13.4773 25.9576 11.5025 23.2248C10.5396 21.8921 9.75151 20.4484 9.14987 18.9139C9.99928 19.0396 10.8548 19.1022 11.7122 19.1022C18.667 19.1022 24.9888 14.995 27.8161 8.63693L28.189 7.79794H34.1551V17.8462H36.6672V5.28589H26.5552L25.5199 7.61702C23.0956 13.068 17.6759 16.5901 11.7122 16.5901C10.3311 16.5901 8.95177 16.3982 7.6105 16.0198L5.46887 15.4157L6.05764 17.561C6.76722 20.1485 7.91408 22.5489 9.46694 24.6954C11.2038 27.0996 12.2648 29.5258 12.6217 31.9072C13.3681 36.9025 11.7766 41.7861 8.25446 45.3052L7.17199 46.3883L7.52709 47.1794C9.66381 51.9313 12.5101 56.3132 15.9881 60.2046L17.8605 58.5303C14.7468 55.0474 12.1648 51.1487 10.179 46.9335Z" fill="#0E181E"/>
    <path d="M56.5944 16.3706L56.1731 18.847C58.0761 19.1702 59.8811 19.1788 61.6725 18.9151C61.0709 20.4502 60.2816 21.897 59.3175 23.2321C57.3439 25.9637 56.132 28.7597 55.7162 31.5429C54.8619 37.2618 56.6582 42.8588 60.6434 46.9359C56.0388 56.7014 48.2138 64.7148 38.5249 69.5579L37.3621 70.1393C37.1407 70.2504 36.9034 70.3178 36.6672 70.3883V61.8071H34.1552V70.3871C33.9191 70.3166 33.6817 70.2491 33.4622 70.1393L32.2975 69.5567C27.5672 67.1918 23.2778 64.0843 19.5502 60.3199L17.7655 62.0874C21.6869 66.0462 26.1983 69.3157 31.1734 71.8038L32.3392 72.3865C33.2874 72.8599 34.3496 73.1114 35.4112 73.1114C36.4728 73.1114 37.5351 72.8599 38.4863 72.384L39.6491 71.8026C50.1107 66.5724 58.5085 57.8281 63.2953 47.1794L63.6504 46.3895L62.5679 45.3064C59.047 41.7861 57.4543 36.9037 58.2006 31.9114C58.5557 29.5294 59.6161 27.1032 61.353 24.7003C62.9071 22.5501 64.0552 20.1472 64.7647 17.5597L65.3523 15.4144L63.2119 16.0185C61.0856 16.6189 58.9256 16.7649 56.5944 16.3706Z" fill="#0E181E"/>
    <path d="M43.0063 8.63693C44.9621 13.033 48.6964 16.4785 53.252 18.0884L54.0897 15.7199C50.1806 14.3381 46.978 11.3839 45.3012 7.6158L44.266 5.28589H39.1793V7.79794H42.6334L43.0063 8.63693Z" fill="#0E181E"/>
</svg>
