<?xml version="1.0" encoding="UTF-8"?>
<svg width="79" height="79" viewBox="0 0 79 79" fill="none" xmlns="http://www.w3.org/2000/svg">
    <path d="M19.4617 70.5992H26.9978V73.1113H19.4617V70.5992Z" fill="#0E181E"/>
    <path fill-rule="evenodd" clip-rule="evenodd" d="M40.814 12.8221V63.0633H5.64526V12.8221H40.814ZM38.3021 15.334H8.15739V60.551H38.3021V15.334Z" fill="#0E181E"/>
    <path fill-rule="evenodd" clip-rule="evenodd" d="M16.535 35.7924L19.3549 38.7276L29.4693 26.0907L35.0111 30.8989L19.8449 49.8473L11.4391 41.095L16.535 35.7924ZM19.6738 46.0417L31.5435 31.2128L29.7999 29.6992L19.5266 42.5318L16.535 39.4169L14.9239 41.0949L19.6738 46.0417Z" fill="#0E181E"/>
    <path fill-rule="evenodd" clip-rule="evenodd" d="M45.8382 21.6142H74.7269C76.8041 21.6142 78.4949 23.305 78.4949 25.3823V50.5028C78.4949 52.5801 76.8041 54.2709 74.7269 54.2709H45.8382V71.8553C45.8382 75.318 43.0207 78.1355 39.5581 78.1355H6.90136C3.43869 78.1355 0.621216 75.318 0.621216 71.8553V6.54186C0.621216 3.0792 3.43869 0.261719 6.90136 0.261719H39.5581C43.0207 0.261719 45.8382 3.0792 45.8382 6.54186V21.6142ZM75.9829 25.3824C75.9829 24.6906 75.4199 24.1263 74.7269 24.1263H45.8382V26.6384H75.9829V25.3824ZM6.90137 2.77379H39.5581C41.6353 2.77379 43.3262 4.46465 43.3262 6.54188V7.7979H3.13329V6.54188C3.13329 4.46465 4.82414 2.77379 6.90137 2.77379ZM43.3262 65.5752V10.31H3.13329V65.5752H43.3262ZM39.5581 75.6233H6.90137C4.82414 75.6233 3.13329 73.9325 3.13329 71.8552V68.0872H43.3262V71.8552C43.3262 73.9325 41.6353 75.6233 39.5581 75.6233ZM45.8382 51.7588H74.7269C75.4199 51.7588 75.9829 51.1946 75.9829 50.5028V34.1744H73.4708V31.6623H75.9829V29.1503H45.8382V51.7588Z" fill="#0E181E"/>
    <path fill-rule="evenodd" clip-rule="evenodd" d="M65.9346 39.883C66.6957 39.4372 67.5611 39.1986 68.4467 39.1986C71.2175 39.1986 73.4708 41.4519 73.4708 44.2227C73.4708 46.9936 71.2175 49.2468 68.4467 49.2468C67.5611 49.2468 66.6957 49.0083 65.9346 48.5624C65.1735 49.0083 64.3081 49.2468 63.4225 49.2468C60.6517 49.2468 58.3984 46.9936 58.3984 44.2227C58.3984 41.4519 60.6517 39.1986 63.4225 39.1986C64.3081 39.1986 65.1735 39.4372 65.9346 39.883ZM66.7749 46.0803C67.2447 46.5022 67.8377 46.7346 68.4467 46.7346C69.8322 46.7346 70.9588 45.608 70.9588 44.2226C70.9588 42.8372 69.8322 41.7105 68.4467 41.7105C67.8377 41.7105 67.2447 41.943 66.7749 42.3649L65.9347 43.1223L65.0945 42.3649C64.6247 41.943 64.0316 41.7105 63.4226 41.7105C62.0372 41.7105 60.9106 42.8372 60.9106 44.2226C60.9106 45.608 62.0372 46.7346 63.4226 46.7346C64.0316 46.7346 64.6247 46.5022 65.0945 46.0803L65.9347 45.3228L66.7749 46.0803Z" fill="#0E181E"/>
    <path d="M68.4467 31.6624H70.9587V34.1744H68.4467V31.6624Z" fill="#0E181E"/>
    <path d="M63.4226 31.6624H65.9347V34.1744H63.4226V31.6624Z" fill="#0E181E"/>
    <path d="M58.3984 31.6624H60.9105V34.1744H58.3984V31.6624Z" fill="#0E181E"/>
    <path d="M53.3744 31.6624H55.8864V34.1744H53.3744V31.6624Z" fill="#0E181E"/>
    <path d="M48.3503 31.6624H50.8624V34.1744H48.3503V31.6624Z" fill="#0E181E"/>
</svg>
