<?xml version="1.0" encoding="UTF-8"?>
<svg width="79" height="79" viewBox="0 0 79 79" fill="none" xmlns="http://www.w3.org/2000/svg">
    <path d="M21.7844 26.6384C21.7844 27.332 21.222 27.8944 20.5284 27.8944C19.8347 27.8944 19.2723 27.332 19.2723 26.6384C19.2723 25.9447 19.8347 25.3823 20.5284 25.3823C21.222 25.3823 21.7844 25.9447 21.7844 26.6384Z" fill="#0E181E"/>
    <path d="M34.3446 26.6384C34.3446 27.332 33.7822 27.8944 33.0885 27.8944C32.3949 27.8944 31.8325 27.332 31.8325 26.6384C31.8325 25.9447 32.3949 25.3823 33.0885 25.3823C33.7822 25.3823 34.3446 25.9447 34.3446 26.6384Z" fill="#0E181E"/>
    <path d="M26.8085 39.1986C29.5794 39.1986 31.8326 36.9453 31.8326 34.1744H29.3206C29.3206 35.5599 28.194 36.6865 26.8085 36.6865C25.4231 36.6865 24.2965 35.5599 24.2965 34.1744H21.7844C21.7844 36.9453 24.0377 39.1986 26.8085 39.1986Z" fill="#0E181E"/>
    <path fill-rule="evenodd" clip-rule="evenodd" d="M58.2092 37.9426C54.5705 37.9426 51.1642 38.93 48.2161 40.6282C46.5983 39.1532 45.6489 37.0459 45.6489 34.8374V15.4586C45.6489 11.3072 42.8026 7.68627 38.8186 6.67126C35.5038 2.59531 30.6017 0.261719 25.3415 0.261719C15.7618 0.261719 7.96805 8.05547 7.96805 17.6351V34.8374C7.96805 37.823 6.30909 40.5074 3.6388 41.8425L2.73665 42.292L2.98135 43.2696C3.02919 43.4653 4.06688 47.2009 10.7714 48.6629L6.4434 50.106C2.84827 51.3044 0.431885 54.6567 0.431885 58.4462V73.1113H44.962C48.5026 76.2275 53.1323 78.1355 58.2092 78.1355C69.2896 78.1355 78.3056 69.1194 78.3056 58.039C78.3056 46.9586 69.2896 37.9426 58.2092 37.9426ZM46.0886 42.0473C43.9672 43.6597 42.1758 45.6762 40.8321 47.9908L34.3447 45.8289V43.2267C37.1204 41.412 39.1977 38.6258 40.1084 35.3551C41.2387 35.2208 42.2715 34.7964 43.1368 34.142V34.8374C43.1368 37.5445 44.2261 40.132 46.0886 42.0473ZM24.9484 52.9309L20.1892 48.1717L15.8409 49.6209L19.6881 57.3153L24.9484 52.9309ZM23.0404 24.1263C25.7683 24.1263 28.3724 23.3149 30.5765 21.8074V24.1263H32.885C34.9536 24.1263 36.8542 23.1904 38.1127 21.6584V31.6624C38.1127 37.896 33.042 42.9667 26.8085 42.9667C20.7884 42.9667 15.5042 38.1738 15.5005 32.7099L15.5042 24.0686C17.7728 23.8589 19.9218 23.0824 21.7843 21.8074V24.1263H23.0404ZM33.4277 48.1717L28.6686 52.9309L33.93 57.3153L37.7772 49.6209L33.4277 48.1717ZM26.8085 45.4787C28.5821 45.4787 30.2724 45.131 31.8326 44.5189V46.2147L26.8085 51.2388L21.7844 46.2147V44.5245C23.3593 45.1322 25.0563 45.4787 26.8085 45.4787ZM30.1166 57.4061L26.8085 54.6499L23.5004 57.4061L25.0728 60.5511H28.5429L30.1166 57.4061ZM25.4053 63.0631H28.2117L29.1537 70.5993H24.4632L25.4053 63.0631ZM32.0987 59.0589L30.6139 62.0291L31.6854 70.5993H42.5462C39.7796 67.155 38.1127 62.7908 38.1127 58.039C38.1127 56.4726 38.3114 54.9541 38.6518 53.4896L34.7592 61.2747L32.0987 59.0589ZM40.572 32.7038L40.5722 32.702C40.5985 32.3573 40.6248 32.0132 40.6248 31.6624V25.6135C42.0832 26.1336 43.1368 27.5153 43.1368 29.1504C43.1368 30.8044 42.058 32.1985 40.572 32.7038ZM36.9487 8.35294C34.111 4.80748 29.8804 2.77379 25.3414 2.77379C17.1472 2.77379 10.4801 9.44092 10.4801 17.6339V24.1575C11.2136 23.6025 12.0587 23.1879 12.9921 22.9972V21.6142H14.2482C17.1521 21.6142 19.8825 20.4839 21.9352 18.4312L24.2952 16.0713V21.5437C26.7232 21.2665 28.974 20.1834 30.7274 18.43L33.0874 16.07V21.6093C34.8371 21.5265 36.3617 20.3809 36.9205 18.7054L37.2069 17.8461H40.6248V22.9984C41.5582 23.1879 42.4033 23.6037 43.1368 24.1588V15.4586C43.1368 12.3436 40.9198 9.64024 37.8655 9.02879L37.4197 8.93986L36.9487 8.35294ZM12.9909 25.6147L12.9885 32.686C11.5313 32.1647 10.4801 30.7842 10.4801 29.1503C10.4801 27.5153 11.5325 26.1348 12.9909 25.6147ZM10.4801 34.8374C10.4801 38.3406 8.7506 41.5297 5.89203 43.4352C6.83405 44.606 9.50924 46.6918 16.5683 46.7311L19.2723 45.8289V43.2721C16.3254 41.4206 14.1151 38.5657 13.3172 35.3361C12.2611 35.1766 11.2964 34.7596 10.4801 34.142V34.8374ZM2.94396 58.4462C2.94396 55.7392 4.66977 53.3442 7.23825 52.4887L13.4331 50.4237L18.8577 61.2748L21.5182 59.0589L23.003 62.0291L21.9316 70.5993H2.94396V58.4462ZM40.6248 58.039C40.6248 67.7358 48.5124 75.6234 58.2092 75.6234C67.906 75.6234 75.7936 67.7358 75.7936 58.039C75.7936 48.3422 67.906 40.4546 58.2092 40.4546C48.5124 40.4546 40.6248 48.3422 40.6248 58.039Z" fill="#0E181E"/>
    <path fill-rule="evenodd" clip-rule="evenodd" d="M54.4412 45.4788H56.9532C59.0304 45.4788 60.7213 47.1696 60.7213 49.2468V51.7589C60.7213 53.8361 59.0304 55.527 56.9532 55.527C56.2602 55.527 55.6972 56.09 55.6972 56.783V59.2951C55.6972 59.9881 56.2602 60.5511 56.9532 60.5511C59.0304 60.5511 60.7213 62.2419 60.7213 64.3192V66.8312C60.7213 68.9085 59.0304 70.5993 56.9532 70.5993H54.4412C50.9785 70.5993 48.161 67.7818 48.161 64.3192V51.7589C48.161 48.2962 50.9785 45.4788 54.4412 45.4788ZM56.9532 53.0149C57.6462 53.0149 58.2092 52.4519 58.2092 51.7589V49.2468C58.2092 48.5538 57.6462 47.9908 56.9532 47.9908H54.4411C52.3639 47.9908 50.673 49.6817 50.673 51.7589V64.3192C50.673 66.3964 52.3639 68.0872 54.4411 68.0872H56.9532C57.6462 68.0872 58.2092 67.5242 58.2092 66.8312V64.3192C58.2092 63.6261 57.6462 63.0631 56.9532 63.0631C54.8759 63.0631 53.1851 61.3723 53.1851 59.295V56.783C53.1851 54.7058 54.8759 53.0149 56.9532 53.0149Z" fill="#0E181E"/>
    <path d="M63.2333 49.2468H65.7453V51.7589H63.2333V49.2468Z" fill="#0E181E"/>
    <path d="M68.2574 49.2468H70.7695V51.7589H68.2574V49.2468Z" fill="#0E181E"/>
</svg>
